<svg width="22" height="23" viewBox="0 0 22 23" fill="none" xmlns="http://www.w3.org/2000/svg">
<path d="M13.0636 23H8.9368C8.40407 23 7.94314 22.6239 7.82913 22.0961L7.3677 19.9295C6.75213 19.6559 6.16845 19.3138 5.6274 18.9095L3.54471 19.5822C3.0368 19.7465 2.48465 19.5296 2.21823 19.0613L0.150284 15.4376C-0.113212 14.969 -0.0224326 14.3779 0.369096 14.0128L1.98468 12.5177C1.91121 11.8405 1.91121 11.1572 1.98468 10.4799L0.369096 8.9884C-0.0230093 8.62312 -0.113825 8.03128 0.150284 7.5624L2.2137 3.93645C2.48011 3.46805 3.03226 3.25121 3.54018 3.4155L5.62287 4.08825C5.89957 3.88028 6.18762 3.68831 6.48564 3.51325C6.77173 3.3496 7.06616 3.20142 7.3677 3.06935L7.83026 0.90505C7.94372 0.377164 8.40415 0.000568552 8.9368 0H13.0636C13.5963 0.000568552 14.0567 0.377164 14.1702 0.90505L14.6373 3.0705C14.9556 3.21254 15.2656 3.37304 15.5658 3.5512C15.8461 3.71539 16.1172 3.89546 16.3776 4.09055L18.4614 3.4178C18.969 3.25412 19.5204 3.47088 19.7867 3.93875L21.8501 7.5647C22.1136 8.03331 22.0229 8.62444 21.6313 8.98955L20.0157 10.4845C20.0892 11.1618 20.0892 11.8451 20.0157 12.5223L21.6313 14.0174C22.0229 14.3825 22.1136 14.9736 21.8501 15.4422L19.7867 19.0681C19.5204 19.536 18.969 19.7528 18.4614 19.5891L16.3776 18.9163C16.1139 19.1133 15.8399 19.2957 15.5567 19.4626C15.2595 19.6373 14.9529 19.7951 14.6384 19.9353L14.1702 22.0961C14.0562 22.6235 13.5959 22.9995 13.0636 23ZM10.9957 6.9C8.49108 6.9 6.4607 8.95949 6.4607 11.5C6.4607 14.0405 8.49108 16.1 10.9957 16.1C13.5003 16.1 15.5307 14.0405 15.5307 11.5C15.5307 8.95949 13.5003 6.9 10.9957 6.9Z" fill="white"/>
</svg>
